<svg width="24" height="24" viewBox="0 0 24 24" fill="none" xmlns="http://www.w3.org/2000/svg">
<path fill-rule="evenodd" clip-rule="evenodd" d="M15.8474 2C16.1127 1.99995 16.3672 2.10537 16.5548 2.29305L20.2073 5.9471C20.5976 6.33759 20.5976 6.97051 20.2073 7.361L9.86586 17.707C9.67831 17.8946 9.42389 18 9.1586 18H5.5C4.94772 18 4.5 17.5523 4.5 17V13.36C4.5 13.0949 4.60519 12.8408 4.79247 12.6533L15.14 2.29332C15.3275 2.10557 15.582 2.00005 15.8474 2ZM15.8478 4.41479L6.5 13.7738V16H8.74426L18.0861 6.65405L15.8478 4.41479ZM2.5 21C2.5 20.4477 2.94772 20 3.5 20H21.5C22.0523 20 22.5 20.4477 22.5 21C22.5 21.5523 22.0523 22 21.5 22H3.5C2.94772 22 2.5 21.5523 2.5 21Z" fill="blue" fill-opacity="0.65"/>
</svg>
